%TF.GenerationSoftware,KiCad,Pcbnew,9.0.7*%
%TF.CreationDate,2026-06-10T18:20:14+05:30*%
%TF.ProjectId,jinx_G-2.0,6a696e78-5f47-42d3-922e-302e6b696361,rev?*%
%TF.SameCoordinates,Original*%
%TF.FileFunction,Paste,Bot*%
%TF.FilePolarity,Positive*%
%FSLAX46Y46*%
G04 Gerber Fmt 4.6, Leading zero omitted, Abs format (unit mm)*
G04 Created by KiCad (PCBNEW 9.0.7) date 2026-06-10 18:20:14*
%MOMM*%
%LPD*%
G01*
G04 APERTURE LIST*
G04 Aperture macros list*
%AMRoundRect*
0 Rectangle with rounded corners*
0 $1 Rounding radius*
0 $2 $3 $4 $5 $6 $7 $8 $9 X,Y pos of 4 corners*
0 Add a 4 corners polygon primitive as box body*
4,1,4,$2,$3,$4,$5,$6,$7,$8,$9,$2,$3,0*
0 Add four circle primitives for the rounded corners*
1,1,$1+$1,$2,$3*
1,1,$1+$1,$4,$5*
1,1,$1+$1,$6,$7*
1,1,$1+$1,$8,$9*
0 Add four rect primitives between the rounded corners*
20,1,$1+$1,$2,$3,$4,$5,0*
20,1,$1+$1,$4,$5,$6,$7,0*
20,1,$1+$1,$6,$7,$8,$9,0*
20,1,$1+$1,$8,$9,$2,$3,0*%
G04 Aperture macros list end*
%ADD10RoundRect,0.250000X-0.300000X-0.300000X0.300000X-0.300000X0.300000X0.300000X-0.300000X0.300000X0*%
%ADD11RoundRect,0.200000X0.275000X-0.200000X0.275000X0.200000X-0.275000X0.200000X-0.275000X-0.200000X0*%
%ADD12RoundRect,0.200000X-0.200000X-0.275000X0.200000X-0.275000X0.200000X0.275000X-0.200000X0.275000X0*%
%ADD13R,3.480000X1.846667*%
%ADD14RoundRect,0.250000X0.475000X-0.250000X0.475000X0.250000X-0.475000X0.250000X-0.475000X-0.250000X0*%
%ADD15RoundRect,0.250000X-0.475000X0.250000X-0.475000X-0.250000X0.475000X-0.250000X0.475000X0.250000X0*%
%ADD16RoundRect,0.225000X-0.250000X0.225000X-0.250000X-0.225000X0.250000X-0.225000X0.250000X0.225000X0*%
%ADD17RoundRect,0.250000X0.250000X0.475000X-0.250000X0.475000X-0.250000X-0.475000X0.250000X-0.475000X0*%
%ADD18RoundRect,0.200000X0.200000X0.275000X-0.200000X0.275000X-0.200000X-0.275000X0.200000X-0.275000X0*%
%ADD19RoundRect,0.225000X0.250000X-0.225000X0.250000X0.225000X-0.250000X0.225000X-0.250000X-0.225000X0*%
%ADD20RoundRect,0.250000X-0.250000X-0.475000X0.250000X-0.475000X0.250000X0.475000X-0.250000X0.475000X0*%
%ADD21RoundRect,0.150000X-0.150000X0.587500X-0.150000X-0.587500X0.150000X-0.587500X0.150000X0.587500X0*%
%ADD22R,0.700000X1.600000*%
%ADD23R,1.200000X1.800000*%
%ADD24R,1.600000X1.500000*%
%ADD25R,1.200000X2.200000*%
%ADD26RoundRect,0.150000X0.150000X-0.587500X0.150000X0.587500X-0.150000X0.587500X-0.150000X-0.587500X0*%
%ADD27R,0.700000X1.500000*%
%ADD28R,0.800000X1.000000*%
%ADD29RoundRect,0.200000X-0.275000X0.200000X-0.275000X-0.200000X0.275000X-0.200000X0.275000X0.200000X0*%
%ADD30RoundRect,0.218750X0.256250X-0.218750X0.256250X0.218750X-0.256250X0.218750X-0.256250X-0.218750X0*%
%ADD31RoundRect,0.218750X-0.256250X0.218750X-0.256250X-0.218750X0.256250X-0.218750X0.256250X0.218750X0*%
%ADD32RoundRect,0.200000X0.200000X0.800000X-0.200000X0.800000X-0.200000X-0.800000X0.200000X-0.800000X0*%
%ADD33RoundRect,0.250000X0.300000X0.300000X-0.300000X0.300000X-0.300000X-0.300000X0.300000X-0.300000X0*%
%ADD34RoundRect,0.225000X-0.225000X-0.250000X0.225000X-0.250000X0.225000X0.250000X-0.225000X0.250000X0*%
G04 APERTURE END LIST*
D10*
%TO.C,D10*%
X111600000Y-100750000D03*
X114400000Y-100750000D03*
%TD*%
D11*
%TO.C,R33*%
X109750000Y-100925000D03*
X109750000Y-102575000D03*
%TD*%
D12*
%TO.C,R35*%
X134825000Y-106500000D03*
X133175000Y-106500000D03*
%TD*%
D13*
%TO.C,J6*%
X157957500Y-105845000D03*
X157957500Y-108615000D03*
X157957500Y-111385000D03*
X157957500Y-114155000D03*
%TD*%
D14*
%TO.C,C15*%
X118500000Y-113450000D03*
X118500000Y-111550000D03*
%TD*%
D15*
%TO.C,C9*%
X109000000Y-113050000D03*
X109000000Y-114950000D03*
%TD*%
D16*
%TO.C,C23*%
X139750000Y-112975000D03*
X139750000Y-114525000D03*
%TD*%
D17*
%TO.C,C18*%
X119200000Y-121500000D03*
X117300000Y-121500000D03*
%TD*%
D12*
%TO.C,R32*%
X153175000Y-102000000D03*
X154825000Y-102000000D03*
%TD*%
D18*
%TO.C,R17*%
X115575000Y-121500000D03*
X113925000Y-121500000D03*
%TD*%
%TO.C,R11*%
X154825000Y-104500000D03*
X153175000Y-104500000D03*
%TD*%
D11*
%TO.C,R3*%
X131750000Y-106575000D03*
X131750000Y-104925000D03*
%TD*%
D19*
%TO.C,C20*%
X144500000Y-107025000D03*
X144500000Y-105475000D03*
%TD*%
%TO.C,C5*%
X127250000Y-106525000D03*
X127250000Y-104975000D03*
%TD*%
D12*
%TO.C,R20*%
X141425000Y-107000000D03*
X143075000Y-107000000D03*
%TD*%
D16*
%TO.C,C27*%
X138500000Y-100475000D03*
X138500000Y-102025000D03*
%TD*%
D20*
%TO.C,C13*%
X118300000Y-99000000D03*
X120200000Y-99000000D03*
%TD*%
D21*
%TO.C,D9*%
X140050000Y-100625000D03*
X141950000Y-100625000D03*
X141000000Y-102500000D03*
%TD*%
D16*
%TO.C,C4*%
X128750000Y-104975000D03*
X128750000Y-106525000D03*
%TD*%
%TO.C,C12*%
X115750000Y-96975000D03*
X115750000Y-98525000D03*
%TD*%
D18*
%TO.C,R8*%
X104325000Y-111000000D03*
X102675000Y-111000000D03*
%TD*%
D19*
%TO.C,C31*%
X146250000Y-116025000D03*
X146250000Y-114475000D03*
%TD*%
D12*
%TO.C,R24*%
X147425000Y-119000000D03*
X149075000Y-119000000D03*
%TD*%
D22*
%TO.C,J9*%
X126500000Y-113000000D03*
X127600000Y-113000000D03*
X128700000Y-113000000D03*
X129800000Y-113000000D03*
X130900000Y-113000000D03*
X132000000Y-113000000D03*
X133100000Y-113000000D03*
X134200000Y-113000000D03*
X135300000Y-113000000D03*
D23*
X136500000Y-114300000D03*
D24*
X121900000Y-114050000D03*
D25*
X136500000Y-123600000D03*
X121000000Y-123600000D03*
%TD*%
D26*
%TO.C,D8*%
X143200000Y-119437500D03*
X141300000Y-119437500D03*
X142250000Y-117562500D03*
%TD*%
D27*
%TO.C,S2*%
X147250000Y-98500000D03*
X150250000Y-98500000D03*
X151750000Y-98500000D03*
D28*
X145850000Y-97715000D03*
X153150000Y-97715000D03*
X145850000Y-95785000D03*
X153150000Y-95785000D03*
%TD*%
D16*
%TO.C,C25*%
X138250000Y-112975000D03*
X138250000Y-114525000D03*
%TD*%
D12*
%TO.C,R9*%
X121925000Y-111000000D03*
X123575000Y-111000000D03*
%TD*%
D16*
%TO.C,C2*%
X128750000Y-107975000D03*
X128750000Y-109525000D03*
%TD*%
D29*
%TO.C,R2*%
X122500000Y-105925000D03*
X122500000Y-107575000D03*
%TD*%
D19*
%TO.C,C6*%
X127250000Y-109525000D03*
X127250000Y-107975000D03*
%TD*%
D20*
%TO.C,C16*%
X114050000Y-123750000D03*
X115950000Y-123750000D03*
%TD*%
D18*
%TO.C,R10*%
X121825000Y-109250000D03*
X120175000Y-109250000D03*
%TD*%
D30*
%TO.C,D5*%
X112250000Y-118537500D03*
X112250000Y-116962500D03*
%TD*%
D12*
%TO.C,R1*%
X123925000Y-106000000D03*
X125575000Y-106000000D03*
%TD*%
D18*
%TO.C,R13*%
X154825000Y-107000000D03*
X153175000Y-107000000D03*
%TD*%
D12*
%TO.C,R12*%
X153175000Y-112000000D03*
X154825000Y-112000000D03*
%TD*%
D19*
%TO.C,C29*%
X145000000Y-119775000D03*
X145000000Y-118225000D03*
%TD*%
%TO.C,C21*%
X144500000Y-115525000D03*
X144500000Y-113975000D03*
%TD*%
D16*
%TO.C,C1*%
X130250000Y-107975000D03*
X130250000Y-109525000D03*
%TD*%
D17*
%TO.C,C8*%
X112700000Y-111250000D03*
X110800000Y-111250000D03*
%TD*%
D31*
%TO.C,D6*%
X110500000Y-118212500D03*
X110500000Y-119787500D03*
%TD*%
D15*
%TO.C,C10*%
X113750000Y-96800000D03*
X113750000Y-98700000D03*
%TD*%
D18*
%TO.C,R16*%
X109325000Y-111250000D03*
X107675000Y-111250000D03*
%TD*%
D14*
%TO.C,C19*%
X116500000Y-113450000D03*
X116500000Y-111550000D03*
%TD*%
D32*
%TO.C,PWR1*%
X119600000Y-117250000D03*
X115400000Y-117250000D03*
%TD*%
D20*
%TO.C,C11*%
X110800000Y-113250000D03*
X112700000Y-113250000D03*
%TD*%
D16*
%TO.C,C26*%
X143500000Y-100225000D03*
X143500000Y-101775000D03*
%TD*%
D27*
%TO.C,S1*%
X152750000Y-121500000D03*
X149750000Y-121500000D03*
X148250000Y-121500000D03*
D28*
X154150000Y-122285000D03*
X146850000Y-122285000D03*
X154150000Y-124215000D03*
X146850000Y-124215000D03*
%TD*%
D33*
%TO.C,D2*%
X106900000Y-102750000D03*
X104100000Y-102750000D03*
%TD*%
D31*
%TO.C,D3*%
X113750000Y-116962500D03*
X113750000Y-118537500D03*
%TD*%
D16*
%TO.C,C30*%
X146250000Y-102975000D03*
X146250000Y-104525000D03*
%TD*%
D19*
%TO.C,C3*%
X130250000Y-106525000D03*
X130250000Y-104975000D03*
%TD*%
%TO.C,C28*%
X139500000Y-119775000D03*
X139500000Y-118225000D03*
%TD*%
D16*
%TO.C,C24*%
X139750000Y-104475000D03*
X139750000Y-106025000D03*
%TD*%
D18*
%TO.C,R14*%
X154825000Y-109500000D03*
X153175000Y-109500000D03*
%TD*%
D14*
%TO.C,C17*%
X114500000Y-113450000D03*
X114500000Y-111550000D03*
%TD*%
D18*
%TO.C,R5*%
X104325000Y-108750000D03*
X102675000Y-108750000D03*
%TD*%
D16*
%TO.C,C22*%
X138250000Y-104475000D03*
X138250000Y-106025000D03*
%TD*%
D12*
%TO.C,R21*%
X141425000Y-115500000D03*
X143075000Y-115500000D03*
%TD*%
D34*
%TO.C,C14*%
X118475000Y-97250000D03*
X120025000Y-97250000D03*
%TD*%
D30*
%TO.C,D7*%
X108750000Y-119787500D03*
X108750000Y-118212500D03*
%TD*%
D12*
%TO.C,R34*%
X133325000Y-108750000D03*
X131675000Y-108750000D03*
%TD*%
M02*
