M48
; DRILL file {KiCad 9.0.7} date 2026-06-10T18:20:08+0530
; FORMAT={-:-/ absolute / metric / decimal}
; #@! TF.CreationDate,2026-06-10T18:20:08+05:30
; #@! TF.GenerationSoftware,Kicad,Pcbnew,9.0.7
; #@! TF.FileFunction,MixedPlating,1,2
FMAT,2
METRIC
; #@! TA.AperFunction,Plated,PTH,ViaDrill
T1C0.300
; #@! TA.AperFunction,Plated,PTH,ViaDrill
T2C0.356
; #@! TA.AperFunction,Plated,PTH,ComponentDrill
T3C0.600
; #@! TA.AperFunction,Plated,PTH,ComponentDrill
T4C0.800
; #@! TA.AperFunction,Plated,PTH,ComponentDrill
T5C0.950
; #@! TA.AperFunction,Plated,PTH,ComponentDrill
T6C1.000
; #@! TA.AperFunction,NonPlated,NPTH,ComponentDrill
T7C0.650
; #@! TA.AperFunction,NonPlated,NPTH,ComponentDrill
T8C0.900
; #@! TA.AperFunction,NonPlated,NPTH,ComponentDrill
T9C1.000
%
G90
G05
T1
X105.0Y-108.75
X105.0Y-111.0
X113.25Y-108.698
X119.5Y-105.0
X121.75Y-106.0
X122.5Y-108.25
X124.0Y-109.75
X127.0Y-107.25
X127.0Y-115.25
X128.196Y-110.559
X128.5Y-115.25
X129.25Y-117.5
X129.75Y-123.75
X130.75Y-117.5
X131.5Y-115.25
X131.75Y-109.0
X131.75Y-109.8
X132.0Y-114.25
X132.152Y-118.75
X132.25Y-122.5
X133.0Y-115.25
X134.75Y-115.25
X137.5Y-106.0
X140.5Y-114.25
X140.75Y-116.25
X145.5Y-105.885
X146.25Y-102.25
X146.25Y-116.75
X151.1Y-99.0
T2
X105.5Y-116.25
X106.0Y-108.067
X106.03Y-111.96
X108.5Y-102.75
X109.0Y-107.5
X109.0Y-113.05
X109.25Y-116.75
X109.75Y-119.75
X110.0Y-112.75
X110.0Y-113.5
X110.0Y-116.0
X110.8Y-113.25
X111.6Y-100.75
X113.0Y-121.5
X113.0Y-122.5
X113.0Y-123.75
X113.5Y-111.55
X114.0Y-120.25
X114.875Y-97.125
X115.25Y-119.25
X116.0Y-100.75
X116.25Y-119.25
X116.5Y-117.75
X116.75Y-113.0
X117.25Y-119.25
X117.5Y-113.5
X118.25Y-100.5
X118.25Y-110.25
X118.3Y-99.0
X118.5Y-111.55
X118.5Y-113.0
X119.392Y-110.608
X123.0Y-116.0
X123.5Y-113.5
X124.5Y-112.0
X125.0Y-113.5
X125.5Y-115.25
X127.5Y-119.0
X127.5Y-123.5
X129.5Y-122.5
X132.5Y-104.75
X132.5Y-107.75
X133.75Y-118.75
X133.75Y-122.5
X134.0Y-102.5
X134.25Y-111.25
X135.0Y-103.0
X135.0Y-107.25
X135.25Y-104.75
X135.5Y-108.035
X135.5Y-118.75
X136.5Y-110.433
X137.25Y-107.0
X137.25Y-108.567
X137.5Y-113.0
X137.733Y-104.5
X137.75Y-103.25
X138.5Y-102.025
X139.0Y-95.75
X139.5Y-117.25
X140.05Y-99.8
X141.3Y-120.5
X141.95Y-99.75
X143.2Y-120.5
X143.75Y-107.25
X143.975Y-115.655
X144.75Y-101.5
X144.75Y-117.25
X145.75Y-111.5
X146.25Y-106.75
X146.5Y-120.75
X147.0Y-111.5
X147.0Y-113.115
X147.25Y-117.5
X148.0Y-111.5
X148.75Y-106.75
X150.0Y-111.0
X154.0Y-105.75
X154.0Y-108.25
X154.75Y-101.0
X154.825Y-107.0
X154.825Y-110.5
T4
X154.75Y-118.0
X154.75Y-120.5
T5
X122.75Y-98.5
X125.25Y-98.5
X127.75Y-98.5
X130.25Y-98.5
X132.75Y-98.5
X139.0Y-98.0
X139.0Y-122.0
X141.5Y-98.0
X141.5Y-122.0
X144.0Y-98.0
X144.0Y-122.0
X151.25Y-102.0
X151.25Y-104.5
X151.25Y-107.0
X151.25Y-109.5
X151.25Y-112.0
X151.25Y-114.5
X151.25Y-117.0
X151.25Y-119.5
T6
X108.0Y-97.75
X108.0Y-122.275
X110.5Y-97.75
X110.5Y-122.275
T7
X106.355Y-107.11
X106.355Y-112.89
T8
X148.0Y-96.75
X149.0Y-123.25
X151.0Y-96.75
X152.0Y-123.25
T9
X125.7Y-124.0
X133.7Y-124.0
T3
G00X103.075Y-105.68
M15
G01X102.275Y-105.68
M16
G05
G00X103.075Y-114.32
M15
G01X102.275Y-114.32
M16
G05
G00X107.405Y-105.68
M15
G01X106.305Y-105.68
M16
G05
G00X107.405Y-114.32
M15
G01X106.305Y-114.32
M16
G05
M30
