%TF.GenerationSoftware,KiCad,Pcbnew,9.0.7*%
%TF.CreationDate,2026-06-10T18:20:14+05:30*%
%TF.ProjectId,jinx_G-2.0,6a696e78-5f47-42d3-922e-302e6b696361,rev?*%
%TF.SameCoordinates,Original*%
%TF.FileFunction,Paste,Top*%
%TF.FilePolarity,Positive*%
%FSLAX46Y46*%
G04 Gerber Fmt 4.6, Leading zero omitted, Abs format (unit mm)*
G04 Created by KiCad (PCBNEW 9.0.7) date 2026-06-10 18:20:14*
%MOMM*%
%LPD*%
G01*
G04 APERTURE LIST*
G04 Aperture macros list*
%AMRoundRect*
0 Rectangle with rounded corners*
0 $1 Rounding radius*
0 $2 $3 $4 $5 $6 $7 $8 $9 X,Y pos of 4 corners*
0 Add a 4 corners polygon primitive as box body*
4,1,4,$2,$3,$4,$5,$6,$7,$8,$9,$2,$3,0*
0 Add four circle primitives for the rounded corners*
1,1,$1+$1,$2,$3*
1,1,$1+$1,$4,$5*
1,1,$1+$1,$6,$7*
1,1,$1+$1,$8,$9*
0 Add four rect primitives between the rounded corners*
20,1,$1+$1,$2,$3,$4,$5,0*
20,1,$1+$1,$4,$5,$6,$7,0*
20,1,$1+$1,$6,$7,$8,$9,0*
20,1,$1+$1,$8,$9,$2,$3,0*%
G04 Aperture macros list end*
%ADD10C,0.010000*%
%ADD11R,3.480000X1.846667*%
%ADD12RoundRect,0.200000X-0.275000X0.200000X-0.275000X-0.200000X0.275000X-0.200000X0.275000X0.200000X0*%
%ADD13O,1.800000X1.000000*%
%ADD14O,2.100000X1.000000*%
%ADD15RoundRect,0.150000X-0.425000X0.150000X-0.425000X-0.150000X0.425000X-0.150000X0.425000X0.150000X0*%
%ADD16RoundRect,0.075000X-0.500000X0.075000X-0.500000X-0.075000X0.500000X-0.075000X0.500000X0.075000X0*%
%ADD17RoundRect,0.200000X0.275000X-0.200000X0.275000X0.200000X-0.275000X0.200000X-0.275000X-0.200000X0*%
%ADD18RoundRect,0.075000X-0.662500X-0.075000X0.662500X-0.075000X0.662500X0.075000X-0.662500X0.075000X0*%
%ADD19RoundRect,0.075000X-0.075000X-0.662500X0.075000X-0.662500X0.075000X0.662500X-0.075000X0.662500X0*%
%ADD20RoundRect,0.250001X0.702499X1.144999X-0.702499X1.144999X-0.702499X-1.144999X0.702499X-1.144999X0*%
%ADD21RoundRect,0.218750X-0.218750X-0.256250X0.218750X-0.256250X0.218750X0.256250X-0.218750X0.256250X0*%
%ADD22RoundRect,0.150000X-0.825000X-0.150000X0.825000X-0.150000X0.825000X0.150000X-0.825000X0.150000X0*%
%ADD23RoundRect,0.200000X0.200000X0.275000X-0.200000X0.275000X-0.200000X-0.275000X0.200000X-0.275000X0*%
%ADD24RoundRect,0.225000X-0.250000X0.225000X-0.250000X-0.225000X0.250000X-0.225000X0.250000X0.225000X0*%
%ADD25RoundRect,0.200000X-0.800000X0.200000X-0.800000X-0.200000X0.800000X-0.200000X0.800000X0.200000X0*%
%ADD26RoundRect,0.218750X0.218750X0.256250X-0.218750X0.256250X-0.218750X-0.256250X0.218750X-0.256250X0*%
%ADD27RoundRect,0.200000X-0.200000X-0.275000X0.200000X-0.275000X0.200000X0.275000X-0.200000X0.275000X0*%
%ADD28RoundRect,0.073750X-0.731250X-0.221250X0.731250X-0.221250X0.731250X0.221250X-0.731250X0.221250X0*%
%ADD29RoundRect,0.162500X-0.650000X-0.162500X0.650000X-0.162500X0.650000X0.162500X-0.650000X0.162500X0*%
%ADD30RoundRect,0.150000X-0.150000X0.512500X-0.150000X-0.512500X0.150000X-0.512500X0.150000X0.512500X0*%
%ADD31RoundRect,0.225000X0.250000X-0.225000X0.250000X0.225000X-0.250000X0.225000X-0.250000X-0.225000X0*%
G04 APERTURE END LIST*
D10*
%TO.C,U3*%
X114543500Y-116325000D02*
X113146500Y-116325000D01*
X113146500Y-114365000D01*
X114543500Y-114365000D01*
X114543500Y-116325000D01*
G36*
X114543500Y-116325000D02*
G01*
X113146500Y-116325000D01*
X113146500Y-114365000D01*
X114543500Y-114365000D01*
X114543500Y-116325000D01*
G37*
%TD*%
D11*
%TO.C,J6*%
X157957500Y-104460000D03*
X157957500Y-107230000D03*
X157957500Y-110000000D03*
X157957500Y-112770000D03*
X157957500Y-115540000D03*
%TD*%
D12*
%TO.C,R25*%
X146250000Y-114425000D03*
X146250000Y-116075000D03*
%TD*%
D13*
%TO.C,J1*%
X102675000Y-114320000D03*
D14*
X106855000Y-114320000D03*
D13*
X102675000Y-105680000D03*
D14*
X106855000Y-105680000D03*
D15*
X107430000Y-106800000D03*
X107430000Y-107600000D03*
D16*
X107430000Y-108250000D03*
X107430000Y-109250000D03*
X107430000Y-110750000D03*
X107430000Y-111750000D03*
D15*
X107430000Y-112400000D03*
X107430000Y-113200000D03*
X107430000Y-113200000D03*
X107430000Y-112400000D03*
D16*
X107430000Y-111250000D03*
X107430000Y-110250000D03*
X107430000Y-109750000D03*
X107430000Y-108750000D03*
D15*
X107430000Y-107600000D03*
X107430000Y-106800000D03*
%TD*%
D17*
%TO.C,R27*%
X131500000Y-117575000D03*
X131500000Y-115925000D03*
%TD*%
D18*
%TO.C,U1*%
X125337500Y-104750000D03*
X125337500Y-105250000D03*
X125337500Y-105750000D03*
X125337500Y-106250000D03*
X125337500Y-106750000D03*
X125337500Y-107250000D03*
X125337500Y-107750000D03*
X125337500Y-108250000D03*
X125337500Y-108750000D03*
X125337500Y-109250000D03*
X125337500Y-109750000D03*
X125337500Y-110250000D03*
D19*
X126750000Y-111662500D03*
X127250000Y-111662500D03*
X127750000Y-111662500D03*
X128250000Y-111662500D03*
X128750000Y-111662500D03*
X129250000Y-111662500D03*
X129750000Y-111662500D03*
X130250000Y-111662500D03*
X130750000Y-111662500D03*
X131250000Y-111662500D03*
X131750000Y-111662500D03*
X132250000Y-111662500D03*
D18*
X133662500Y-110250000D03*
X133662500Y-109750000D03*
X133662500Y-109250000D03*
X133662500Y-108750000D03*
X133662500Y-108250000D03*
X133662500Y-107750000D03*
X133662500Y-107250000D03*
X133662500Y-106750000D03*
X133662500Y-106250000D03*
X133662500Y-105750000D03*
X133662500Y-105250000D03*
X133662500Y-104750000D03*
D19*
X132250000Y-103337500D03*
X131750000Y-103337500D03*
X131250000Y-103337500D03*
X130750000Y-103337500D03*
X130250000Y-103337500D03*
X129750000Y-103337500D03*
X129250000Y-103337500D03*
X128750000Y-103337500D03*
X128250000Y-103337500D03*
X127750000Y-103337500D03*
X127250000Y-103337500D03*
X126750000Y-103337500D03*
%TD*%
D17*
%TO.C,R26*%
X127000000Y-117575000D03*
X127000000Y-115925000D03*
%TD*%
D20*
%TO.C,L1*%
X120425500Y-121500000D03*
X115574500Y-121500000D03*
%TD*%
D21*
%TO.C,D4*%
X111462500Y-102500000D03*
X113037500Y-102500000D03*
%TD*%
D22*
%TO.C,U4*%
X139025000Y-103345000D03*
X139025000Y-104615000D03*
X139025000Y-105885000D03*
X139025000Y-107155000D03*
X143975000Y-107155000D03*
X143975000Y-105885000D03*
X143975000Y-104615000D03*
X143975000Y-103345000D03*
%TD*%
D23*
%TO.C,R19*%
X116825000Y-111750000D03*
X115175000Y-111750000D03*
%TD*%
D24*
%TO.C,C33*%
X133750000Y-119975000D03*
X133750000Y-121525000D03*
%TD*%
D25*
%TO.C,RST1*%
X122250000Y-104650000D03*
X122250000Y-108850000D03*
%TD*%
D26*
%TO.C,D1*%
X122787500Y-110500000D03*
X121212500Y-110500000D03*
%TD*%
D12*
%TO.C,R22*%
X146250000Y-102925000D03*
X146250000Y-104575000D03*
%TD*%
D27*
%TO.C,R15*%
X106175000Y-116250000D03*
X107825000Y-116250000D03*
%TD*%
D28*
%TO.C,U3*%
X111190000Y-113440000D03*
X111190000Y-114710000D03*
X111190000Y-115980000D03*
X111190000Y-117250000D03*
X116500000Y-117250000D03*
X116500000Y-115980000D03*
X116500000Y-114710000D03*
X116500000Y-113440000D03*
%TD*%
D17*
%TO.C,R30*%
X133000000Y-117575000D03*
X133000000Y-115925000D03*
%TD*%
D27*
%TO.C,R18*%
X114425000Y-102500000D03*
X116075000Y-102500000D03*
%TD*%
D23*
%TO.C,R23*%
X151075000Y-98250000D03*
X149425000Y-98250000D03*
%TD*%
D22*
%TO.C,U5*%
X139025000Y-111845000D03*
X139025000Y-113115000D03*
X139025000Y-114385000D03*
X139025000Y-115655000D03*
X143975000Y-115655000D03*
X143975000Y-114385000D03*
X143975000Y-113115000D03*
X143975000Y-111845000D03*
%TD*%
D29*
%TO.C,U6*%
X123912500Y-119845000D03*
X123912500Y-121115000D03*
X123912500Y-122385000D03*
X123912500Y-123655000D03*
X131087500Y-123655000D03*
X131087500Y-122385000D03*
X131087500Y-121115000D03*
X131087500Y-119845000D03*
%TD*%
D17*
%TO.C,R31*%
X134750000Y-117575000D03*
X134750000Y-115925000D03*
%TD*%
%TO.C,R28*%
X128500000Y-117575000D03*
X128500000Y-115925000D03*
%TD*%
%TO.C,R29*%
X125500000Y-117575000D03*
X125500000Y-115925000D03*
%TD*%
D30*
%TO.C,U2*%
X118200000Y-97112500D03*
X117250000Y-97112500D03*
X116300000Y-97112500D03*
X116300000Y-99387500D03*
X118200000Y-99387500D03*
%TD*%
D27*
%TO.C,R6*%
X110175000Y-109250000D03*
X111825000Y-109250000D03*
%TD*%
%TO.C,R7*%
X110175000Y-110750000D03*
X111825000Y-110750000D03*
%TD*%
D31*
%TO.C,C32*%
X124000000Y-117525000D03*
X124000000Y-115975000D03*
%TD*%
D17*
%TO.C,R4*%
X119500000Y-107575000D03*
X119500000Y-105925000D03*
%TD*%
M02*
